<svg xmlns="http://www.w3.org/2000/svg" viewBox="0 0 512 512">
  <rect width="512" height="512" rx="116" fill="#111c1a"/>
  <path d="M96 138c61-60 145-68 210-27 39 25 70 64 83 110 22 82-15 167-92 205-80 39-180 12-225-60-44-71-34-168 24-228Z" fill="#426b58"/>
  <path d="M164 357c46 47 137 47 183 0 39-40 41-114 4-154-38-41-77-20-95 14-18-34-57-55-95-14-37 40-35 114 3 154Z" fill="#d47e73"/>
  <path d="M197 118h78c88 0 143 51 143 132 0 82-56 132-145 132h-76V118Zm73 203c47 0 75-26 75-71 0-44-28-71-75-71h-5v142h5Z" fill="#f7df9a"/>
</svg>
