<svg xmlns="http://www.w3.org/2000/svg" viewBox="0 0 512 512">
  <defs>
    <linearGradient id="bg" x1="54" y1="32" x2="458" y2="480" gradientUnits="userSpaceOnUse">
      <stop stop-color="#111c1a"/>
      <stop offset=".58" stop-color="#426b58"/>
      <stop offset="1" stop-color="#d47e73"/>
    </linearGradient>
    <linearGradient id="gold" x1="140" y1="106" x2="374" y2="408" gradientUnits="userSpaceOnUse">
      <stop stop-color="#fff7dd"/>
      <stop offset=".5" stop-color="#e6be69"/>
      <stop offset="1" stop-color="#fff2c5"/>
    </linearGradient>
  </defs>
  <rect width="512" height="512" rx="116" fill="url(#bg)"/>
  <path d="M117 333c54 58 168 58 222 0 39-42 39-112 0-152-36-37-74-19-95 15-21-34-59-52-95-15-39 40-39 110-32 152Z" fill="#fff8dd" opacity=".13"/>
  <path d="M160 143h96c92 0 148 50 148 126 0 78-57 126-151 126h-93V143Zm91 184c48 0 76-21 76-58 0-36-28-58-76-58h-11v116h11Z" fill="url(#gold)"/>
  <path d="M137 143h42v252h-42z" fill="url(#gold)"/>
  <path d="M382 170v49h49v40h-49v49h-40v-49h-49v-40h49v-49h40Z" fill="#fff7dd"/>
  <circle cx="384" cy="117" r="18" fill="#fff7dd"/>
</svg>
