<svg xmlns="http://www.w3.org/2000/svg" viewBox="0 0 512 512">
  <defs>
    <linearGradient id="bg" x1="64" y1="32" x2="448" y2="480" gradientUnits="userSpaceOnUse">
      <stop stop-color="#111c1a"/>
      <stop offset=".58" stop-color="#426b58"/>
      <stop offset="1" stop-color="#d47e73"/>
    </linearGradient>
    <linearGradient id="gold" x1="148" y1="92" x2="370" y2="418" gradientUnits="userSpaceOnUse">
      <stop stop-color="#fff7dd"/>
      <stop offset=".48" stop-color="#e5bf6d"/>
      <stop offset="1" stop-color="#fff1c3"/>
    </linearGradient>
  </defs>
  <rect width="512" height="512" rx="116" fill="url(#bg)"/>
  <path d="M145 354c55 55 167 55 222 0 47-47 49-137 5-184-45-49-91-25-116 15-25-40-71-64-116-15-44 47-42 137 5 184Z" fill="rgba(255,255,255,.12)"/>
  <path d="M190 114h87c95 0 154 55 154 142 0 88-60 142-156 142h-85V114Zm80 220c53 0 84-29 84-78 0-48-31-78-84-78h-8v156h8Z" fill="url(#gold)"/>
  <circle cx="382" cy="130" r="16" fill="#fff7dd"/>
</svg>
